<svg width="504" height="503" viewBox="0 0 504 503" fill="none" xmlns="http://www.w3.org/2000/svg">
<path d="M85.8006 155.219L229.55 73.0399L223.975 113.289L120.35 174.789V229.015L193.34 216.159L168.27 167.526L217.301 192.689L212.584 212.258L251.85 251.958H0L85.8121 235.74V155.231L85.8006 155.219Z" fill="black"/>
<path d="M119.411 272.684L85.8802 266.519V348.412L239.543 436.482L251.838 502.111V251.936L213.282 286.717H194.279L167.193 335.522L213.282 310.839L229.709 393.854L119.399 328.785V272.695L119.411 272.684Z" fill="black"/>
<path d="M503.688 251.938L251.838 251.936L292.787 290.655L311.298 287.852L337.662 335.547L288.3 310.293L273.715 394.474L385.903 328.25V273.818L503.7 251.927L503.688 251.938Z" fill="black"/>
<path d="M383.178 45.3975L302.792 66.5456L404.7 128.309L383.189 45.4089L383.178 45.3975Z" fill="url(#paint0_linear_6442_127)"/>
<path d="M251.883 0V251.627L290.645 210.715L287.841 192.22L335.589 165.88L310.312 215.199L394.568 229.77L328.285 117.682H273.806L251.895 0H251.883Z" fill="black"/>
<defs>
<linearGradient id="paint0_linear_6442_127" x1="251.85" y1="0" x2="251.85" y2="502.111" gradientUnits="userSpaceOnUse">
<stop stop-color="#FFE563"/>
<stop offset="1" stop-color="#FFB256"/>
</linearGradient>
</defs>
</svg>
