<svg width="179" height="54" viewBox="0 0 179 54" fill="none" xmlns="http://www.w3.org/2000/svg">
<g clip-path="url(#clip0_25639_54571)">
<path d="M81.0303 33.1752C80.0214 33.1752 79.0882 33.0112 78.2307 32.6834C77.3858 32.3429 76.6481 31.87 76.0175 31.2647C75.3996 30.6467 74.9141 29.9279 74.561 29.1082C74.2079 28.2885 74.0312 27.3869 74.0312 26.4032C74.0312 25.4196 74.2079 24.5179 74.561 23.6982C74.9141 22.8785 75.4059 22.166 76.0364 21.5607C76.667 20.9428 77.4046 20.4699 78.2495 20.142C79.1072 19.8015 80.0403 19.6313 81.0492 19.6313C82.0707 19.6313 83.0102 19.8078 83.8677 20.1609C84.7378 20.5014 85.4756 21.0121 86.0809 21.6931L84.8512 22.8848C84.3468 22.3552 83.7794 21.9643 83.1489 21.712C82.5183 21.4472 81.8437 21.3148 81.1249 21.3148C80.3808 21.3148 79.6872 21.4409 79.0441 21.6931C78.4136 21.9453 77.865 22.2984 77.3984 22.7524C76.9318 23.2064 76.5661 23.7487 76.3013 24.3792C76.0491 24.9971 75.9229 25.6718 75.9229 26.4032C75.9229 27.1346 76.0491 27.8156 76.3013 28.4462C76.5661 29.0641 76.9318 29.6 77.3984 30.054C77.865 30.508 78.4136 30.8611 79.0441 31.1133C79.6872 31.3655 80.3808 31.4916 81.1249 31.4916C81.8437 31.4916 82.5183 31.3655 83.1489 31.1133C83.7794 30.8485 84.3468 30.445 84.8512 29.9027L86.0809 31.0944C85.4756 31.7754 84.7378 32.2924 83.8677 32.6455C83.0102 32.9986 82.0644 33.1752 81.0303 33.1752Z" fill="white"/>
<path fill-rule="evenodd" clip-rule="evenodd" d="M78.123 32.9587L78.1206 32.9577C77.2421 32.6037 76.4721 32.1106 75.8132 31.4781L75.811 31.476L75.8089 31.4739C75.1639 30.8289 74.6575 30.0787 74.2899 29.2254C73.9193 28.3651 73.7361 27.4231 73.7361 26.4034C73.7361 25.3837 73.9193 24.4417 74.2899 23.5815C74.658 22.7268 75.1719 21.9817 75.831 21.3488C76.4904 20.7028 77.2616 20.2089 78.1419 19.8671C79.037 19.5119 80.0072 19.3359 81.0495 19.3359C82.1047 19.3359 83.0821 19.5183 83.9782 19.8868C84.8895 20.2439 85.6656 20.7809 86.3021 21.497L86.4902 21.7085L84.8433 23.3048L84.6376 23.0889C84.1602 22.5876 83.6276 22.2219 83.0394 21.9867L83.0371 21.9857L83.0348 21.9847C82.4423 21.7359 81.8067 21.6106 81.1252 21.6106C80.4156 21.6106 79.7592 21.7306 79.1532 21.9681C78.5574 22.2066 78.0423 22.5388 77.6048 22.9645C77.1685 23.3891 76.8249 23.8972 76.5747 24.4925C76.3387 25.0713 76.2188 25.7072 76.2188 26.4034C76.2188 27.0989 76.3384 27.7412 76.5747 28.3333C76.8246 28.9151 77.1679 29.4173 77.6048 29.8424C78.0423 30.268 78.5575 30.6003 79.1533 30.8388C79.7593 31.0762 80.4156 31.1963 81.1252 31.1963C81.8077 31.1963 82.4442 31.0769 83.0371 30.84C83.625 30.5927 84.1576 30.215 84.6353 29.7016L84.8407 29.4807L86.4902 31.0794L86.3021 31.291C85.6659 32.0068 84.8904 32.5497 83.9798 32.9193C83.0829 33.2885 82.0986 33.4709 81.0306 33.4709C79.9893 33.4709 79.0199 33.3016 78.1255 32.9596L78.123 32.9587ZM83.8676 32.6457C84.7377 32.2926 85.4755 31.7756 86.0808 31.0946L84.8512 29.9029C84.7972 29.961 84.7429 30.0174 84.6875 30.0723C84.225 30.53 83.7118 30.8771 83.1488 31.1135C82.5182 31.3657 81.8436 31.4918 81.1248 31.4918C80.3807 31.4918 79.6871 31.3657 79.044 31.1135C78.4135 30.8613 77.8649 30.5082 77.3983 30.0542C76.9317 29.6002 76.566 29.0643 76.3012 28.4464C76.049 27.8158 75.9228 27.1348 75.9228 26.4034C75.9228 25.672 76.049 24.9973 76.3012 24.3794C76.566 23.7489 76.9317 23.2066 77.3983 22.7526C77.8649 22.2986 78.4135 21.9455 79.044 21.6933C79.6871 21.4411 80.3807 21.315 81.1248 21.315C81.8436 21.315 82.5182 21.4474 83.1488 21.7122C83.7508 21.9531 84.2958 22.3203 84.7829 22.8141C84.806 22.8375 84.8284 22.8611 84.8512 22.885L86.0808 21.6933C85.4755 21.0123 84.7377 20.5016 83.8676 20.1611C83.0101 19.808 82.0706 19.6315 81.0491 19.6315C80.0402 19.6315 79.1071 19.8017 78.2495 20.1422C77.4046 20.4701 76.6669 20.943 76.0363 21.5609C75.4058 22.1662 74.914 22.8787 74.5609 23.6984C74.2078 24.5181 74.0312 25.4198 74.0312 26.4034C74.0312 27.3871 74.2078 28.2887 74.5609 29.1084C74.914 29.9281 75.3995 30.6469 76.0174 31.2649C76.648 31.8702 77.3857 32.3431 78.2306 32.6836C79.0881 33.0114 80.0213 33.1754 81.0302 33.1754C82.0643 33.1754 83.0101 32.9988 83.8676 32.6457Z" fill="white"/>
<path d="M57.0432 33.0239V19.7827H58.5943L64.5339 29.7893H63.7016L69.5656 19.7827H71.1167L71.1356 33.0239H69.3197L69.3008 22.639H69.7359L64.515 31.4161H63.6449L58.3862 22.639H58.8591V33.0239H57.0432Z" fill="white"/>
<path fill-rule="evenodd" clip-rule="evenodd" d="M56.748 33.3197V19.4873H58.763L64.1139 28.5021L69.3967 19.4873H71.4123L71.4321 33.3197H69.0251L69.0089 24.4402L64.6835 31.7118H63.4778L59.1551 24.4969V33.3197H56.748ZM58.8596 23.4285L63.6449 31.4163H64.515L69.3025 23.3684L69.3197 33.0241H71.1356L71.1167 19.7829H69.5656L64.1155 29.0839L58.5943 19.7829H57.0432V33.0241H58.8591L58.8596 23.4285Z" fill="white"/>
<path d="M173.97 33.1376C171.984 33.1376 170.036 32.4377 169.052 31.4163L169.601 30.338C170.547 31.2649 172.23 31.9459 173.97 31.9459C176.448 31.9459 177.527 30.9055 177.527 29.6003C177.527 25.9684 169.374 28.2005 169.374 23.3013C169.374 21.3529 170.887 19.6694 174.254 19.6694C175.749 19.6694 177.3 20.1045 178.359 20.8422L177.886 21.9582C176.751 21.2205 175.427 20.8611 174.254 20.8611C171.833 20.8611 170.755 21.9393 170.755 23.2634C170.755 26.8953 178.908 24.7011 178.908 29.5247C178.908 31.473 177.356 33.1376 173.97 33.1376Z" fill="white"/>
<path d="M162.233 33.0239V20.9933H157.58V19.7827H168.287V20.9933H163.633V33.0239H162.233Z" fill="white"/>
<path d="M148.406 31.8133H156.37V33.0239H147.006V19.7827H156.086V20.9933H148.406V25.7034H155.254V26.8951H148.406V31.8133Z" fill="white"/>
<path d="M143.073 33.0239L137.663 26.8005L134.958 29.5433V33.0239H133.559V19.7827H134.958V27.7841L142.733 19.7827H144.341L138.609 25.779L144.738 33.0239H143.073Z" fill="white"/>
<path d="M130.464 33.0239H128.932L125.905 28.7678C125.564 28.8056 125.224 28.8245 124.846 28.8245H121.289V33.0239H119.89V19.7827H124.846C128.213 19.7827 130.256 21.4851 130.256 24.3225C130.256 26.4033 129.159 27.8598 127.229 28.484L130.464 33.0239ZM124.808 27.6328C127.456 27.6328 128.856 26.4033 128.856 24.3225C128.856 22.2039 127.456 20.9933 124.808 20.9933H121.289V27.6328H124.808Z" fill="white"/>
<path d="M116.224 33.0239L114.635 29.4866H107.257L105.668 33.0239H104.212L110.265 19.7827H111.646L117.699 33.0239H116.224ZM107.768 28.3516H114.124L110.946 21.2392L107.768 28.3516Z" fill="white"/>
<path d="M100.862 19.7827H102.016V33.0239H100.673V22.4309L95.4707 31.3404H94.8086L89.6067 22.4877V33.0239H88.2637V19.7827H89.4176L95.168 29.6001L100.862 19.7827Z" fill="white"/>
<path d="M9.06399 16.5298L24.2464 7.8418L23.658 12.0971L12.7125 18.5984V24.3313L20.4214 22.9719L17.7733 17.83L22.9518 20.4896L22.4536 22.5582L26.6007 26.7544H0L9.06399 25.0405V16.5298Z" fill="white"/>
<path d="M12.6129 28.9484L9.07178 28.2962V36.9537L25.3021 46.2635L26.6006 53.2014V26.7544L22.5282 30.4309H20.5216L17.6609 35.5898L22.5282 32.9807L24.2634 41.7568L12.6129 34.8783V28.9484Z" fill="white"/>
<path d="M53.2013 26.7544H26.6006L30.9254 30.8479L32.8805 30.5512L35.665 35.5939L30.4515 32.9242L28.9111 41.823L40.76 34.8226V29.0681L53.2013 26.7544Z" fill="white"/>
<g filter="url(#filter0_i_25639_54571)">
<path d="M40.4735 4.92041L31.9824 7.15562L42.7457 13.6848L40.4735 4.92041Z" fill="url(#paint0_linear_25639_54571)"/>
</g>
<path d="M26.6006 0V26.6007L30.694 22.2759L30.3974 20.3208L35.44 17.5363L32.7704 22.7498L41.6692 24.2902L34.6688 12.4413H28.9143L26.6006 0Z" fill="white"/>
</g>
<defs>
<filter id="filter0_i_25639_54571" x="31.9824" y="4.92041" width="10.7632" height="12.7646" filterUnits="userSpaceOnUse" color-interpolation-filters="sRGB">
<feFlood flood-opacity="0" result="BackgroundImageFix"/>
<feBlend mode="normal" in="SourceGraphic" in2="BackgroundImageFix" result="shape"/>
<feColorMatrix in="SourceAlpha" type="matrix" values="0 0 0 0 0 0 0 0 0 0 0 0 0 0 0 0 0 0 127 0" result="hardAlpha"/>
<feOffset dy="4"/>
<feGaussianBlur stdDeviation="2"/>
<feComposite in2="hardAlpha" operator="arithmetic" k2="-1" k3="1"/>
<feColorMatrix type="matrix" values="0 0 0 0 1 0 0 0 0 0.693546 0 0 0 0 0.0986654 0 0 0 0.25 0"/>
<feBlend mode="normal" in2="shape" result="effect1_innerShadow_25639_54571"/>
</filter>
<linearGradient id="paint0_linear_25639_54571" x1="37.3641" y1="4.92041" x2="37.3641" y2="13.6848" gradientUnits="userSpaceOnUse">
<stop stop-color="#FFE563"/>
<stop offset="1" stop-color="#FFB256"/>
</linearGradient>
<clipPath id="clip0_25639_54571">
<rect width="179" height="54" fill="white"/>
</clipPath>
</defs>
</svg>
